# xmcd
#
# Track frame offsets: 
#        150
#        21264
#        35632
#        52308
#        66502
#        89488
#        99949
#        113036
#        126322
#        139889
#        154211
#        171390
#
# Disc length: 2399 seconds
#
# Revision: 0
# Processed by: cddbd v1.4PL0 Copyright (c) Steve Scherf et al.
# Submitted via: ExactAudioCopy v0.90b4
#
DISCID=b4095d0c
DTITLE=The Benders - The Benders II
DYEAR=2001
DGENRE=Crossover
TTITLE0=Donna Lee
TTITLE1=Hatpicker Blues
TTITLE2=River Will Rise
TTITLE3=Can't Wait
TTITLE4=Til I'm Home
TTITLE5=Willy's Song
TTITLE6=Never Got Out
TTITLE7=Maggie Stone
TTITLE8=44 Gun
TTITLE9=Slow Train Blues
TTITLE10=Photograph
TTITLE11=Whatever Man
EXTD=
EXTT0=
EXTT1=
EXTT2=
EXTT3=
EXTT4=
EXTT5=
EXTT6=
EXTT7=
EXTT8=
EXTT9=
EXTT10=
EXTT11=
PLAYORDER=
